<?xml version="1.0" encoding="UTF-8" standalone="no"?><svg xmlns="http://www.w3.org/2000/svg" xmlns:xlink="http://www.w3.org/1999/xlink" contentStyleType="text/css" height="2470px" preserveAspectRatio="none" style="width:900px;height:2470px;background:#FFFFFF;" version="1.1" viewBox="0 0 900 2470" width="900px" zoomAndPan="magnify"><defs/><g><rect fill="#F1F1F1" height="36.2969" rx="12.5" ry="12.5" style="stroke:#181818;stroke-width:1.5;" width="80" x="10" y="1216.3086"/><text fill="#000000" font-family="sans-serif" font-size="14" lengthAdjust="spacing" textLength="60" x="20" y="1239.3037">Finetech</text><rect fill="#F1F1F1" height="36.2969" rx="12.5" ry="12.5" style="stroke:#181818;stroke-width:1.5;" width="111" x="140" y="48.1484"/><text fill="#000000" font-family="sans-serif" font-size="14" lengthAdjust="spacing" textLength="91" x="150" y="71.1436">Customer UX</text><rect fill="#F1F1F1" height="36.2969" rx="12.5" ry="12.5" style="stroke:#181818;stroke-width:1.5;" width="80" x="301" y="20"/><text fill="#000000" font-family="sans-serif" font-size="14" lengthAdjust="spacing" textLength="60" x="311" y="42.9951">Sales UX</text><path d="M251,66.2969 L261,66.2969 C276,66.2969 276,38.1484 291,38.1484 L301,38.1484 " fill="none" style="stroke:#181818;stroke-width:1.0;"/><rect fill="#F1F1F1" height="36.2969" rx="12.5" ry="12.5" style="stroke:#181818;stroke-width:1.5;" width="111" x="301" y="76.2969"/><text fill="#000000" font-family="sans-serif" font-size="14" lengthAdjust="spacing" textLength="91" x="311" y="99.292">Customer UX</text><path d="M251,66.2969 L261,66.2969 C276,66.2969 276,94.4453 291,94.4453 L301,94.4453 " fill="none" style="stroke:#181818;stroke-width:1.0;"/><path d="M90,1234.457 L100,1234.457 C115,1234.457 115,66.2969 130,66.2969 L140,66.2969 " fill="none" style="stroke:#181818;stroke-width:1.0;"/><rect fill="#F1F1F1" height="36.2969" rx="12.5" ry="12.5" style="stroke:#181818;stroke-width:1.5;" width="57" x="140" y="526.6719"/><text fill="#000000" font-family="sans-serif" font-size="14" lengthAdjust="spacing" textLength="37" x="150" y="549.667">Sales</text><rect fill="#F1F1F1" height="36.2969" rx="12.5" ry="12.5" style="stroke:#181818;stroke-width:1.5;" width="97" x="247" y="245.1875"/><text fill="#000000" font-family="sans-serif" font-size="14" lengthAdjust="spacing" textLength="77" x="257" y="268.1826">Catalog API</text><rect fill="#F1F1F1" height="36.2969" rx="12.5" ry="12.5" style="stroke:#181818;stroke-width:1.5;" width="95" x="394" y="132.5938"/><text fill="#000000" font-family="sans-serif" font-size="14" lengthAdjust="spacing" textLength="75" x="404" y="155.5889">getCatalog</text><rect fill="#F1F1F1" height="36.2969" rx="12.5" ry="12.5" style="stroke:#181818;stroke-width:1.5;" width="72" x="539" y="132.5938"/><text fill="#000000" font-family="sans-serif" font-size="14" lengthAdjust="spacing" textLength="52" x="549" y="155.5889">Catalog</text><path d="M489,150.7422 L499,150.7422 C514,150.7422 514,150.7422 529,150.7422 L539,150.7422 " fill="none" style="stroke:#181818;stroke-width:1.0;"/><path d="M344,263.3359 L354,263.3359 C369,263.3359 369,150.7422 384,150.7422 L394,150.7422 " fill="none" style="stroke:#181818;stroke-width:1.0;"/><rect fill="#F1F1F1" height="36.2969" rx="12.5" ry="12.5" style="stroke:#181818;stroke-width:1.5;" width="97" x="394" y="217.0391"/><text fill="#000000" font-family="sans-serif" font-size="14" lengthAdjust="spacing" textLength="77" x="404" y="240.0342">getProduct</text><rect fill="#F1F1F1" height="36.2969" rx="12.5" ry="12.5" style="stroke:#181818;stroke-width:1.5;" width="74" x="541" y="188.8906"/><text fill="#000000" font-family="sans-serif" font-size="14" lengthAdjust="spacing" textLength="54" x="551" y="211.8857">Product</text><path d="M491,235.1875 L501,235.1875 C516,235.1875 516,207.0391 531,207.0391 L541,207.0391 " fill="none" style="stroke:#181818;stroke-width:1.0;"/><rect fill="#F1F1F1" height="36.2969" rx="12.5" ry="12.5" style="stroke:#181818;stroke-width:1.5;" width="111" x="541" y="245.1875"/><text fill="#000000" font-family="sans-serif" font-size="14" lengthAdjust="spacing" textLength="91" x="551" y="268.1826">QuoteCriteria</text><path d="M491,235.1875 L501,235.1875 C516,235.1875 516,263.3359 531,263.3359 L541,263.3359 " fill="none" style="stroke:#181818;stroke-width:1.0;"/><path d="M344,263.3359 L354,263.3359 C369,263.3359 369,235.1875 384,235.1875 L394,235.1875 " fill="none" style="stroke:#181818;stroke-width:1.0;"/><rect fill="#F1F1F1" height="36.2969" rx="12.5" ry="12.5" style="stroke:#181818;stroke-width:1.5;" width="93" x="394" y="329.6328"/><text fill="#000000" font-family="sans-serif" font-size="14" lengthAdjust="spacing" textLength="73" x="404" y="352.6279">consumes</text><rect fill="#F1F1F1" height="36.2969" rx="12.5" ry="12.5" style="stroke:#181818;stroke-width:1.5;" width="111" x="537" y="301.4844"/><text fill="#000000" font-family="sans-serif" font-size="14" lengthAdjust="spacing" textLength="91" x="547" y="324.4795">CatalogEvent</text><path d="M487,347.7813 L497,347.7813 C512,347.7813 512,319.6328 527,319.6328 L537,319.6328 " fill="none" style="stroke:#181818;stroke-width:1.0;"/><rect fill="#F1F1F1" height="36.2969" rx="12.5" ry="12.5" style="stroke:#181818;stroke-width:1.5;" width="113" x="537" y="357.7813"/><text fill="#000000" font-family="sans-serif" font-size="14" lengthAdjust="spacing" textLength="93" x="547" y="380.7764">ProductEvent</text><path d="M487,347.7813 L497,347.7813 C512,347.7813 512,375.9297 527,375.9297 L537,375.9297 " fill="none" style="stroke:#181818;stroke-width:1.0;"/><path d="M344,263.3359 L354,263.3359 C369,263.3359 369,347.7813 384,347.7813 L394,347.7813 " fill="none" style="stroke:#181818;stroke-width:1.0;"/><path d="M197,544.8203 L207,544.8203 C222,544.8203 222,263.3359 237,263.3359 L247,263.3359 " fill="none" style="stroke:#181818;stroke-width:1.0;"/><rect fill="#F1F1F1" height="36.2969" rx="12.5" ry="12.5" style="stroke:#181818;stroke-width:1.5;" width="88" x="247" y="498.5234"/><text fill="#000000" font-family="sans-serif" font-size="14" lengthAdjust="spacing" textLength="68" x="257" y="521.5186">Quote API</text><rect fill="#F1F1F1" height="36.2969" rx="12.5" ry="12.5" style="stroke:#181818;stroke-width:1.5;" width="151" x="385" y="470.375"/><text fill="#000000" font-family="sans-serif" font-size="14" lengthAdjust="spacing" textLength="131" x="395" y="493.3701">getQuoteByCriteria</text><rect fill="#F1F1F1" height="36.2969" rx="12.5" ry="12.5" style="stroke:#181818;stroke-width:1.5;" width="63" x="586" y="414.0781"/><text fill="#000000" font-family="sans-serif" font-size="14" lengthAdjust="spacing" textLength="43" x="596" y="437.0732">Quote</text><path d="M536,488.5234 L546,488.5234 C561,488.5234 561,432.2266 576,432.2266 L586,432.2266 " fill="none" style="stroke:#181818;stroke-width:1.0;"/><rect fill="#F1F1F1" height="36.2969" rx="12.5" ry="12.5" style="stroke:#181818;stroke-width:1.5;" width="54" x="586" y="470.375"/><text fill="#000000" font-family="sans-serif" font-size="14" lengthAdjust="spacing" textLength="34" x="596" y="493.3701">Price</text><path d="M536,488.5234 L546,488.5234 C561,488.5234 561,488.5234 576,488.5234 L586,488.5234 " fill="none" style="stroke:#181818;stroke-width:1.0;"/><rect fill="#F1F1F1" height="36.2969" rx="12.5" ry="12.5" style="stroke:#181818;stroke-width:1.5;" width="86" x="586" y="526.6719"/><text fill="#000000" font-family="sans-serif" font-size="14" lengthAdjust="spacing" textLength="66" x="596" y="549.667">Condition</text><path d="M536,488.5234 L546,488.5234 C561,488.5234 561,544.8203 576,544.8203 L586,544.8203 " fill="none" style="stroke:#181818;stroke-width:1.0;"/><path d="M335,516.6719 L345,516.6719 C360,516.6719 360,488.5234 375,488.5234 L385,488.5234 " fill="none" style="stroke:#181818;stroke-width:1.0;"/><rect fill="#F1F1F1" height="36.2969" rx="12.5" ry="12.5" style="stroke:#181818;stroke-width:1.5;" width="93" x="385" y="582.9688"/><text fill="#000000" font-family="sans-serif" font-size="14" lengthAdjust="spacing" textLength="73" x="395" y="605.9639">consumes</text><rect fill="#F1F1F1" height="36.2969" rx="12.5" ry="12.5" style="stroke:#181818;stroke-width:1.5;" width="93" x="528" y="582.9688"/><text fill="#000000" font-family="sans-serif" font-size="14" lengthAdjust="spacing" textLength="73" x="538" y="605.9639">PriceEvent</text><path d="M478,601.1172 L488,601.1172 C503,601.1172 503,601.1172 518,601.1172 L528,601.1172 " fill="none" style="stroke:#181818;stroke-width:1.0;"/><path d="M335,516.6719 L345,516.6719 C360,516.6719 360,601.1172 375,601.1172 L385,601.1172 " fill="none" style="stroke:#181818;stroke-width:1.0;"/><path d="M197,544.8203 L207,544.8203 C222,544.8203 222,516.6719 237,516.6719 L247,516.6719 " fill="none" style="stroke:#181818;stroke-width:1.0;"/><rect fill="#F1F1F1" height="36.2969" rx="12.5" ry="12.5" style="stroke:#181818;stroke-width:1.5;" width="84" x="247" y="780.0078"/><text fill="#000000" font-family="sans-serif" font-size="14" lengthAdjust="spacing" textLength="64" x="257" y="803.0029">Order API</text><rect fill="#F1F1F1" height="36.2969" rx="12.5" ry="12.5" style="stroke:#181818;stroke-width:1.5;" width="103" x="381" y="695.5625"/><text fill="#000000" font-family="sans-serif" font-size="14" lengthAdjust="spacing" textLength="83" x="391" y="718.5576">createOrder</text><rect fill="#F1F1F1" height="36.2969" rx="12.5" ry="12.5" style="stroke:#181818;stroke-width:1.5;" width="63" x="534" y="639.2656"/><text fill="#000000" font-family="sans-serif" font-size="14" lengthAdjust="spacing" textLength="43" x="544" y="662.2607">Quote</text><path d="M484,713.7109 L494,713.7109 C509,713.7109 509,657.4141 524,657.4141 L534,657.4141 " fill="none" style="stroke:#181818;stroke-width:1.0;"/><rect fill="#F1F1F1" height="36.2969" rx="12.5" ry="12.5" style="stroke:#181818;stroke-width:1.5;" width="69" x="534" y="695.5625"/><text fill="#000000" font-family="sans-serif" font-size="14" lengthAdjust="spacing" textLength="49" x="544" y="718.5576">Person</text><path d="M484,713.7109 L494,713.7109 C509,713.7109 509,713.7109 524,713.7109 L534,713.7109 " fill="none" style="stroke:#181818;stroke-width:1.0;"/><rect fill="#F1F1F1" height="36.2969" rx="12.5" ry="12.5" style="stroke:#181818;stroke-width:1.5;" width="107" x="534" y="751.8594"/><text fill="#000000" font-family="sans-serif" font-size="14" lengthAdjust="spacing" textLength="87" x="544" y="774.8545">Organization</text><path d="M484,713.7109 L494,713.7109 C509,713.7109 509,770.0078 524,770.0078 L534,770.0078 " fill="none" style="stroke:#181818;stroke-width:1.0;"/><path d="M331,798.1563 L341,798.1563 C356,798.1563 356,713.7109 371,713.7109 L381,713.7109 " fill="none" style="stroke:#181818;stroke-width:1.0;"/><rect fill="#F1F1F1" height="36.2969" rx="12.5" ry="12.5" style="stroke:#181818;stroke-width:1.5;" width="86" x="381" y="864.4531"/><text fill="#000000" font-family="sans-serif" font-size="14" lengthAdjust="spacing" textLength="66" x="391" y="887.4482">produces</text><rect fill="#F1F1F1" height="36.2969" rx="12.5" ry="12.5" style="stroke:#181818;stroke-width:1.5;" width="98" x="517" y="864.4531"/><text fill="#000000" font-family="sans-serif" font-size="14" lengthAdjust="spacing" textLength="78" x="527" y="887.4482">OrderEvent</text><rect fill="#F1F1F1" height="36.2969" rx="12.5" ry="12.5" style="stroke:#181818;stroke-width:1.5;" width="114" x="665" y="808.1563"/><text fill="#000000" font-family="sans-serif" font-size="14" lengthAdjust="spacing" textLength="94" x="675" y="831.1514">OrderCreated</text><path d="M615,882.6016 L625,882.6016 C640,882.6016 640,826.3047 655,826.3047 L665,826.3047 " fill="none" style="stroke:#181818;stroke-width:1.0;"/><rect fill="#F1F1F1" height="36.2969" rx="12.5" ry="12.5" style="stroke:#181818;stroke-width:1.5;" width="121" x="665" y="864.4531"/><text fill="#000000" font-family="sans-serif" font-size="14" lengthAdjust="spacing" textLength="101" x="675" y="887.4482">OrderRejected</text><path d="M615,882.6016 L625,882.6016 C640,882.6016 640,882.6016 655,882.6016 L665,882.6016 " fill="none" style="stroke:#181818;stroke-width:1.0;"/><rect fill="#F1F1F1" height="36.2969" rx="12.5" ry="12.5" style="stroke:#181818;stroke-width:1.5;" width="200" x="665" y="920.75"/><text fill="#000000" font-family="sans-serif" font-size="14" lengthAdjust="spacing" textLength="180" x="675" y="943.7451">UnsignedContractCreated</text><path d="M615,882.6016 L625,882.6016 C640,882.6016 640,938.8984 655,938.8984 L665,938.8984 " fill="none" style="stroke:#181818;stroke-width:1.0;"/><path d="M467,882.6016 L477,882.6016 C492,882.6016 492,882.6016 507,882.6016 L517,882.6016 " fill="none" style="stroke:#181818;stroke-width:1.0;"/><path d="M331,798.1563 L341,798.1563 C356,798.1563 356,882.6016 371,882.6016 L381,882.6016 " fill="none" style="stroke:#181818;stroke-width:1.0;"/><path d="M197,544.8203 L207,544.8203 C222,544.8203 222,798.1563 237,798.1563 L247,798.1563 " fill="none" style="stroke:#181818;stroke-width:1.0;"/><path d="M90,1234.457 L100,1234.457 C115,1234.457 115,544.8203 130,544.8203 L140,544.8203 " fill="none" style="stroke:#181818;stroke-width:1.0;"/><rect fill="#F1F1F1" height="36.2969" rx="12.5" ry="12.5" style="stroke:#181818;stroke-width:1.5;" width="71" x="140" y="1117.7891"/><text fill="#000000" font-family="sans-serif" font-size="14" lengthAdjust="spacing" textLength="51" x="150" y="1140.7842">Signing</text><rect fill="#F1F1F1" height="36.2969" rx="12.5" ry="12.5" style="stroke:#181818;stroke-width:1.5;" width="98" x="261" y="1061.4922"/><text fill="#000000" font-family="sans-serif" font-size="14" lengthAdjust="spacing" textLength="74" x="271" y="1084.4873">Signing UX</text><path d="M211,1135.9375 L221,1135.9375 C236,1135.9375 236,1079.6406 251,1079.6406 L261,1079.6406 " fill="none" style="stroke:#181818;stroke-width:1.0;"/><rect fill="#F1F1F1" height="36.2969" rx="12.5" ry="12.5" style="stroke:#181818;stroke-width:1.5;" width="96" x="261" y="1117.7891"/><text fill="#000000" font-family="sans-serif" font-size="14" lengthAdjust="spacing" textLength="76" x="271" y="1140.7842">Signing API</text><rect fill="#F1F1F1" height="36.2969" rx="12.5" ry="12.5" style="stroke:#181818;stroke-width:1.5;" width="161" x="407" y="977.0469"/><text fill="#000000" font-family="sans-serif" font-size="14" lengthAdjust="spacing" textLength="141" x="417" y="1000.042">startContractSigning</text><path d="M357,1135.9375 L367,1135.9375 C382,1135.9375 382,995.1953 397,995.1953 L407,995.1953 " fill="none" style="stroke:#181818;stroke-width:1.0;"/><rect fill="#F1F1F1" height="36.2969" rx="12.5" ry="12.5" style="stroke:#181818;stroke-width:1.5;" width="204" x="407" y="1033.3438"/><text fill="#000000" font-family="sans-serif" font-size="14" lengthAdjust="spacing" textLength="184" x="417" y="1056.3389">signContractWithSignature</text><path d="M357,1135.9375 L367,1135.9375 C382,1135.9375 382,1051.4922 397,1051.4922 L407,1051.4922 " fill="none" style="stroke:#181818;stroke-width:1.0;"/><rect fill="#F1F1F1" height="36.2969" rx="12.5" ry="12.5" style="stroke:#181818;stroke-width:1.5;" width="93" x="407" y="1089.6406"/><text fill="#000000" font-family="sans-serif" font-size="14" lengthAdjust="spacing" textLength="73" x="417" y="1112.6357">consumes</text><rect fill="#F1F1F1" height="36.2969" rx="12.5" ry="12.5" style="stroke:#181818;stroke-width:1.5;" width="200" x="550" y="1089.6406"/><text fill="#000000" font-family="sans-serif" font-size="14" lengthAdjust="spacing" textLength="180" x="560" y="1112.6357">UnsignedContractCreated</text><path d="M500,1107.7891 L510,1107.7891 C525,1107.7891 525,1107.7891 540,1107.7891 L550,1107.7891 " fill="none" style="stroke:#181818;stroke-width:1.0;"/><path d="M357,1135.9375 L367,1135.9375 C382,1135.9375 382,1107.7891 397,1107.7891 L407,1107.7891 " fill="none" style="stroke:#181818;stroke-width:1.0;"/><rect fill="#F1F1F1" height="36.2969" rx="12.5" ry="12.5" style="stroke:#181818;stroke-width:1.5;" width="86" x="407" y="1202.2344"/><text fill="#000000" font-family="sans-serif" font-size="14" lengthAdjust="spacing" textLength="66" x="417" y="1225.2295">produces</text><rect fill="#F1F1F1" height="36.2969" rx="12.5" ry="12.5" style="stroke:#181818;stroke-width:1.5;" width="110" x="543" y="1202.2344"/><text fill="#000000" font-family="sans-serif" font-size="14" lengthAdjust="spacing" textLength="90" x="553" y="1225.2295">SigningEvent</text><rect fill="#F1F1F1" height="36.2969" rx="12.5" ry="12.5" style="stroke:#181818;stroke-width:1.5;" width="184" x="703" y="1145.9375"/><text fill="#000000" font-family="sans-serif" font-size="14" lengthAdjust="spacing" textLength="160" x="713" y="1168.9326">ContractSigningStarted</text><path d="M653,1220.3828 L663,1220.3828 C678,1220.3828 678,1164.0859 693,1164.0859 L703,1164.0859 " fill="none" style="stroke:#181818;stroke-width:1.0;"/><rect fill="#F1F1F1" height="36.2969" rx="12.5" ry="12.5" style="stroke:#181818;stroke-width:1.5;" width="185" x="703" y="1202.2344"/><text fill="#000000" font-family="sans-serif" font-size="14" lengthAdjust="spacing" textLength="161" x="713" y="1225.2295">ContractSigningExpired</text><path d="M653,1220.3828 L663,1220.3828 C678,1220.3828 678,1220.3828 693,1220.3828 L703,1220.3828 " fill="none" style="stroke:#181818;stroke-width:1.0;"/><rect fill="#F1F1F1" height="36.2969" rx="12.5" ry="12.5" style="stroke:#181818;stroke-width:1.5;" width="131" x="703" y="1258.5313"/><text fill="#000000" font-family="sans-serif" font-size="14" lengthAdjust="spacing" textLength="107" x="713" y="1281.5264">ContractSigned</text><path d="M653,1220.3828 L663,1220.3828 C678,1220.3828 678,1276.6797 693,1276.6797 L703,1276.6797 " fill="none" style="stroke:#181818;stroke-width:1.0;"/><path d="M493,1220.3828 L503,1220.3828 C518,1220.3828 518,1220.3828 533,1220.3828 L543,1220.3828 " fill="none" style="stroke:#181818;stroke-width:1.0;"/><path d="M357,1135.9375 L367,1135.9375 C382,1135.9375 382,1220.3828 397,1220.3828 L407,1220.3828 " fill="none" style="stroke:#181818;stroke-width:1.0;"/><path d="M211,1135.9375 L221,1135.9375 C236,1135.9375 236,1135.9375 251,1135.9375 L261,1135.9375 " fill="none" style="stroke:#181818;stroke-width:1.0;"/><path d="M90,1234.457 L100,1234.457 C115,1234.457 115,1135.9375 130,1135.9375 L140,1135.9375 " fill="none" style="stroke:#181818;stroke-width:1.0;"/><rect fill="#F1F1F1" height="36.2969" rx="12.5" ry="12.5" style="stroke:#181818;stroke-width:1.5;" width="88" x="140" y="1554.0898"/><text fill="#000000" font-family="sans-serif" font-size="14" lengthAdjust="spacing" textLength="68" x="150" y="1577.085">Customer</text><rect fill="#F1F1F1" height="36.2969" rx="12.5" ry="12.5" style="stroke:#181818;stroke-width:1.5;" width="113" x="278" y="1342.9766"/><text fill="#000000" font-family="sans-serif" font-size="14" lengthAdjust="spacing" textLength="93" x="288" y="1365.9717">Customer API</text><rect fill="#F1F1F1" height="36.2969" rx="12.5" ry="12.5" style="stroke:#181818;stroke-width:1.5;" width="111" x="441" y="1314.8281"/><text fill="#000000" font-family="sans-serif" font-size="14" lengthAdjust="spacing" textLength="91" x="451" y="1337.8232">getCustomer</text><path d="M391,1361.125 L401,1361.125 C416,1361.125 416,1332.9766 431,1332.9766 L441,1332.9766 " fill="none" style="stroke:#181818;stroke-width:1.0;"/><rect fill="#F1F1F1" height="36.2969" rx="12.5" ry="12.5" style="stroke:#181818;stroke-width:1.5;" width="93" x="441" y="1371.125"/><text fill="#000000" font-family="sans-serif" font-size="14" lengthAdjust="spacing" textLength="73" x="451" y="1394.1201">consumes</text><rect fill="#F1F1F1" height="36.2969" rx="12.5" ry="12.5" style="stroke:#181818;stroke-width:1.5;" width="114" x="584" y="1371.125"/><text fill="#000000" font-family="sans-serif" font-size="14" lengthAdjust="spacing" textLength="94" x="594" y="1394.1201">OrderCreated</text><path d="M534,1389.2734 L544,1389.2734 C559,1389.2734 559,1389.2734 574,1389.2734 L584,1389.2734 " fill="none" style="stroke:#181818;stroke-width:1.0;"/><path d="M391,1361.125 L401,1361.125 C416,1361.125 416,1389.2734 431,1389.2734 L441,1389.2734 " fill="none" style="stroke:#181818;stroke-width:1.0;"/><path d="M228,1572.2383 L238,1572.2383 C253,1572.2383 253,1361.125 268,1361.125 L278,1361.125 " fill="none" style="stroke:#181818;stroke-width:1.0;"/><rect fill="#F1F1F1" height="36.2969" rx="12.5" ry="12.5" style="stroke:#181818;stroke-width:1.5;" width="122" x="278" y="1455.5703"/><text fill="#000000" font-family="sans-serif" font-size="14" lengthAdjust="spacing" textLength="102" x="288" y="1478.5654">Agreement API</text><rect fill="#F1F1F1" height="36.2969" rx="12.5" ry="12.5" style="stroke:#181818;stroke-width:1.5;" width="120" x="450" y="1427.4219"/><text fill="#000000" font-family="sans-serif" font-size="14" lengthAdjust="spacing" textLength="100" x="460" y="1450.417">getAgreement</text><path d="M400,1473.7188 L410,1473.7188 C425,1473.7188 425,1445.5703 440,1445.5703 L450,1445.5703 " fill="none" style="stroke:#181818;stroke-width:1.0;"/><rect fill="#F1F1F1" height="36.2969" rx="12.5" ry="12.5" style="stroke:#181818;stroke-width:1.5;" width="93" x="450" y="1483.7188"/><text fill="#000000" font-family="sans-serif" font-size="14" lengthAdjust="spacing" textLength="73" x="460" y="1506.7139">consumes</text><rect fill="#F1F1F1" height="36.2969" rx="12.5" ry="12.5" style="stroke:#181818;stroke-width:1.5;" width="131" x="593" y="1483.7188"/><text fill="#000000" font-family="sans-serif" font-size="14" lengthAdjust="spacing" textLength="107" x="603" y="1506.7139">ContractSigned</text><path d="M543,1501.8672 L553,1501.8672 C568,1501.8672 568,1501.8672 583,1501.8672 L593,1501.8672 " fill="none" style="stroke:#181818;stroke-width:1.0;"/><path d="M400,1473.7188 L410,1473.7188 C425,1473.7188 425,1501.8672 440,1501.8672 L450,1501.8672 " fill="none" style="stroke:#181818;stroke-width:1.0;"/><path d="M228,1572.2383 L238,1572.2383 C253,1572.2383 253,1473.7188 268,1473.7188 L278,1473.7188 " fill="none" style="stroke:#181818;stroke-width:1.0;"/><rect fill="#F1F1F1" height="36.2969" rx="12.5" ry="12.5" style="stroke:#181818;stroke-width:1.5;" width="118" x="278" y="1568.1641"/><text fill="#000000" font-family="sans-serif" font-size="14" lengthAdjust="spacing" textLength="98" x="288" y="1591.1592">Document API</text><rect fill="#F1F1F1" height="36.2969" rx="12.5" ry="12.5" style="stroke:#181818;stroke-width:1.5;" width="116" x="446" y="1540.0156"/><text fill="#000000" font-family="sans-serif" font-size="14" lengthAdjust="spacing" textLength="96" x="456" y="1563.0107">getDocument</text><path d="M396,1586.3125 L406,1586.3125 C421,1586.3125 421,1558.1641 436,1558.1641 L446,1558.1641 " fill="none" style="stroke:#181818;stroke-width:1.0;"/><rect fill="#F1F1F1" height="36.2969" rx="12.5" ry="12.5" style="stroke:#181818;stroke-width:1.5;" width="93" x="446" y="1596.3125"/><text fill="#000000" font-family="sans-serif" font-size="14" lengthAdjust="spacing" textLength="73" x="456" y="1619.3076">consumes</text><rect fill="#F1F1F1" height="36.2969" rx="12.5" ry="12.5" style="stroke:#181818;stroke-width:1.5;" width="127" x="589" y="1596.3125"/><text fill="#000000" font-family="sans-serif" font-size="14" lengthAdjust="spacing" textLength="107" x="599" y="1619.3076">ContractSigned</text><path d="M539,1614.4609 L549,1614.4609 C564,1614.4609 564,1614.4609 579,1614.4609 L589,1614.4609 " fill="none" style="stroke:#181818;stroke-width:1.0;"/><path d="M396,1586.3125 L406,1586.3125 C421,1586.3125 421,1614.4609 436,1614.4609 L446,1614.4609 " fill="none" style="stroke:#181818;stroke-width:1.0;"/><path d="M228,1572.2383 L238,1572.2383 C253,1572.2383 253,1586.3125 268,1586.3125 L278,1586.3125 " fill="none" style="stroke:#181818;stroke-width:1.0;"/><rect fill="#F1F1F1" height="36.2969" rx="12.5" ry="12.5" style="stroke:#181818;stroke-width:1.5;" width="80" x="278" y="1722.9805"/><text fill="#000000" font-family="sans-serif" font-size="14" lengthAdjust="spacing" textLength="60" x="288" y="1745.9756">Case API</text><rect fill="#F1F1F1" height="36.2969" rx="12.5" ry="12.5" style="stroke:#181818;stroke-width:1.5;" width="78" x="408" y="1652.6094"/><text fill="#000000" font-family="sans-serif" font-size="14" lengthAdjust="spacing" textLength="58" x="418" y="1675.6045">getCase</text><path d="M358,1741.1289 L368,1741.1289 C383,1741.1289 383,1670.7578 398,1670.7578 L408,1670.7578 " fill="none" style="stroke:#181818;stroke-width:1.0;"/><rect fill="#F1F1F1" height="36.2969" rx="12.5" ry="12.5" style="stroke:#181818;stroke-width:1.5;" width="93" x="408" y="1708.9063"/><text fill="#000000" font-family="sans-serif" font-size="14" lengthAdjust="spacing" textLength="73" x="418" y="1731.9014">consumes</text><rect fill="#F1F1F1" height="36.2969" rx="12.5" ry="12.5" style="stroke:#181818;stroke-width:1.5;" width="98" x="551" y="1680.7578"/><text fill="#000000" font-family="sans-serif" font-size="14" lengthAdjust="spacing" textLength="78" x="561" y="1703.7529">OrderEvent</text><path d="M501,1727.0547 L511,1727.0547 C526,1727.0547 526,1698.9063 541,1698.9063 L551,1698.9063 " fill="none" style="stroke:#181818;stroke-width:1.0;"/><rect fill="#F1F1F1" height="36.2969" rx="12.5" ry="12.5" style="stroke:#181818;stroke-width:1.5;" width="110" x="551" y="1737.0547"/><text fill="#000000" font-family="sans-serif" font-size="14" lengthAdjust="spacing" textLength="90" x="561" y="1760.0498">SigningEvent</text><path d="M501,1727.0547 L511,1727.0547 C526,1727.0547 526,1755.2031 541,1755.2031 L551,1755.2031 " fill="none" style="stroke:#181818;stroke-width:1.0;"/><path d="M358,1741.1289 L368,1741.1289 C383,1741.1289 383,1727.0547 398,1727.0547 L408,1727.0547 " fill="none" style="stroke:#181818;stroke-width:1.0;"/><rect fill="#F1F1F1" height="36.2969" rx="12.5" ry="12.5" style="stroke:#181818;stroke-width:1.5;" width="86" x="408" y="1793.3516"/><text fill="#000000" font-family="sans-serif" font-size="14" lengthAdjust="spacing" textLength="66" x="418" y="1816.3467">produces</text><rect fill="#F1F1F1" height="36.2969" rx="12.5" ry="12.5" style="stroke:#181818;stroke-width:1.5;" width="98" x="544" y="1793.3516"/><text fill="#000000" font-family="sans-serif" font-size="14" lengthAdjust="spacing" textLength="74" x="554" y="1816.3467">CaseEvent</text><path d="M494,1811.5 L504,1811.5 C519,1811.5 519,1811.5 534,1811.5 L544,1811.5 " fill="none" style="stroke:#181818;stroke-width:1.0;"/><path d="M358,1741.1289 L368,1741.1289 C383,1741.1289 383,1811.5 398,1811.5 L408,1811.5 " fill="none" style="stroke:#181818;stroke-width:1.0;"/><path d="M228,1572.2383 L238,1572.2383 C253,1572.2383 253,1741.1289 268,1741.1289 L278,1741.1289 " fill="none" style="stroke:#181818;stroke-width:1.0;"/><path d="M90,1234.457 L100,1234.457 C115,1234.457 115,1572.2383 130,1572.2383 L140,1572.2383 " fill="none" style="stroke:#181818;stroke-width:1.0;"/><rect fill="#F1F1F1" height="36.2969" rx="12.5" ry="12.5" style="stroke:#181818;stroke-width:1.5;" width="128" x="140" y="1877.7969"/><text fill="#000000" font-family="sans-serif" font-size="14" lengthAdjust="spacing" textLength="108" x="150" y="1900.792">Communication</text><rect fill="#F1F1F1" height="36.2969" rx="12.5" ry="12.5" style="stroke:#181818;stroke-width:1.5;" width="81" x="318" y="1877.7969"/><text fill="#000000" font-family="sans-serif" font-size="14" lengthAdjust="spacing" textLength="61" x="328" y="1900.792">Email API</text><rect fill="#F1F1F1" height="36.2969" rx="12.5" ry="12.5" style="stroke:#181818;stroke-width:1.5;" width="79" x="449" y="1849.6484"/><text fill="#000000" font-family="sans-serif" font-size="14" lengthAdjust="spacing" textLength="59" x="459" y="1872.6436">getEmail</text><path d="M399,1895.9453 L409,1895.9453 C424,1895.9453 424,1867.7969 439,1867.7969 L449,1867.7969 " fill="none" style="stroke:#181818;stroke-width:1.0;"/><rect fill="#F1F1F1" height="36.2969" rx="12.5" ry="12.5" style="stroke:#181818;stroke-width:1.5;" width="93" x="449" y="1905.9453"/><text fill="#000000" font-family="sans-serif" font-size="14" lengthAdjust="spacing" textLength="73" x="459" y="1928.9404">consumes</text><rect fill="#F1F1F1" height="36.2969" rx="12.5" ry="12.5" style="stroke:#181818;stroke-width:1.5;" width="98" x="592" y="1905.9453"/><text fill="#000000" font-family="sans-serif" font-size="14" lengthAdjust="spacing" textLength="74" x="602" y="1928.9404">CaseEvent</text><path d="M542,1924.0938 L552,1924.0938 C567,1924.0938 567,1924.0938 582,1924.0938 L592,1924.0938 " fill="none" style="stroke:#181818;stroke-width:1.0;"/><path d="M399,1895.9453 L409,1895.9453 C424,1895.9453 424,1924.0938 439,1924.0938 L449,1924.0938 " fill="none" style="stroke:#181818;stroke-width:1.0;"/><path d="M268,1895.9453 L278,1895.9453 C293,1895.9453 293,1895.9453 308,1895.9453 L318,1895.9453 " fill="none" style="stroke:#181818;stroke-width:1.0;"/><path d="M90,1234.457 L100,1234.457 C115,1234.457 115,1895.9453 130,1895.9453 L140,1895.9453 " fill="none" style="stroke:#181818;stroke-width:1.0;"/><rect fill="#F1F1F1" height="36.2969" rx="12.5" ry="12.5" style="stroke:#181818;stroke-width:1.5;" width="169" x="140" y="2187.4297"/><text fill="#000000" font-family="sans-serif" font-size="14" lengthAdjust="spacing" textLength="149" x="150" y="2210.4248">Product Management</text><rect fill="#F1F1F1" height="36.2969" rx="12.5" ry="12.5" style="stroke:#181818;stroke-width:1.5;" width="86" x="359" y="2187.4297"/><text fill="#000000" font-family="sans-serif" font-size="14" lengthAdjust="spacing" textLength="66" x="369" y="2210.4248">produces</text><rect fill="#F1F1F1" height="36.2969" rx="12.5" ry="12.5" style="stroke:#181818;stroke-width:1.5;" width="111" x="495" y="2102.9844"/><text fill="#000000" font-family="sans-serif" font-size="14" lengthAdjust="spacing" textLength="91" x="505" y="2125.9795">CatalogEvent</text><rect fill="#F1F1F1" height="36.2969" rx="12.5" ry="12.5" style="stroke:#181818;stroke-width:1.5;" width="127" x="656" y="1962.2422"/><text fill="#000000" font-family="sans-serif" font-size="14" lengthAdjust="spacing" textLength="107" x="666" y="1985.2373">CatalogCreated</text><path d="M606,2121.1328 L616,2121.1328 C631,2121.1328 631,1980.3906 646,1980.3906 L656,1980.3906 " fill="none" style="stroke:#181818;stroke-width:1.0;"/><rect fill="#F1F1F1" height="36.2969" rx="12.5" ry="12.5" style="stroke:#181818;stroke-width:1.5;" width="131" x="656" y="2018.5391"/><text fill="#000000" font-family="sans-serif" font-size="14" lengthAdjust="spacing" textLength="111" x="666" y="2041.5342">CatalogUpdated</text><path d="M606,2121.1328 L616,2121.1328 C631,2121.1328 631,2036.6875 646,2036.6875 L656,2036.6875 " fill="none" style="stroke:#181818;stroke-width:1.0;"/><rect fill="#F1F1F1" height="36.2969" rx="12.5" ry="12.5" style="stroke:#181818;stroke-width:1.5;" width="127" x="656" y="2074.8359"/><text fill="#000000" font-family="sans-serif" font-size="14" lengthAdjust="spacing" textLength="107" x="666" y="2097.8311">CatalogDeleted</text><path d="M606,2121.1328 L616,2121.1328 C631,2121.1328 631,2092.9844 646,2092.9844 L656,2092.9844 " fill="none" style="stroke:#181818;stroke-width:1.0;"/><rect fill="#F1F1F1" height="36.2969" rx="12.5" ry="12.5" style="stroke:#181818;stroke-width:1.5;" width="129" x="656" y="2131.1328"/><text fill="#000000" font-family="sans-serif" font-size="14" lengthAdjust="spacing" textLength="109" x="666" y="2154.1279">ProductCreated</text><path d="M606,2121.1328 L616,2121.1328 C631,2121.1328 631,2149.2813 646,2149.2813 L656,2149.2813 " fill="none" style="stroke:#181818;stroke-width:1.0;"/><rect fill="#F1F1F1" height="36.2969" rx="12.5" ry="12.5" style="stroke:#181818;stroke-width:1.5;" width="133" x="656" y="2187.4297"/><text fill="#000000" font-family="sans-serif" font-size="14" lengthAdjust="spacing" textLength="113" x="666" y="2210.4248">ProductUpdated</text><path d="M606,2121.1328 L616,2121.1328 C631,2121.1328 631,2205.5781 646,2205.5781 L656,2205.5781 " fill="none" style="stroke:#181818;stroke-width:1.0;"/><rect fill="#F1F1F1" height="36.2969" rx="12.5" ry="12.5" style="stroke:#181818;stroke-width:1.5;" width="129" x="656" y="2243.7266"/><text fill="#000000" font-family="sans-serif" font-size="14" lengthAdjust="spacing" textLength="109" x="666" y="2266.7217">ProductDeleted</text><path d="M606,2121.1328 L616,2121.1328 C631,2121.1328 631,2261.875 646,2261.875 L656,2261.875 " fill="none" style="stroke:#181818;stroke-width:1.0;"/><path d="M445,2205.5781 L455,2205.5781 C470,2205.5781 470,2121.1328 485,2121.1328 L495,2121.1328 " fill="none" style="stroke:#181818;stroke-width:1.0;"/><rect fill="#F1F1F1" height="36.2969" rx="12.5" ry="12.5" style="stroke:#181818;stroke-width:1.5;" width="93" x="495" y="2356.3203"/><text fill="#000000" font-family="sans-serif" font-size="14" lengthAdjust="spacing" textLength="73" x="505" y="2379.3154">PriceEvent</text><rect fill="#F1F1F1" height="36.2969" rx="12.5" ry="12.5" style="stroke:#181818;stroke-width:1.5;" width="109" x="638" y="2300.0234"/><text fill="#000000" font-family="sans-serif" font-size="14" lengthAdjust="spacing" textLength="89" x="648" y="2323.0186">PriceCreated</text><path d="M588,2374.4688 L598,2374.4688 C613,2374.4688 613,2318.1719 628,2318.1719 L638,2318.1719 " fill="none" style="stroke:#181818;stroke-width:1.0;"/><rect fill="#F1F1F1" height="36.2969" rx="12.5" ry="12.5" style="stroke:#181818;stroke-width:1.5;" width="113" x="638" y="2356.3203"/><text fill="#000000" font-family="sans-serif" font-size="14" lengthAdjust="spacing" textLength="93" x="648" y="2379.3154">PriceUpdated</text><path d="M588,2374.4688 L598,2374.4688 C613,2374.4688 613,2374.4688 628,2374.4688 L638,2374.4688 " fill="none" style="stroke:#181818;stroke-width:1.0;"/><rect fill="#F1F1F1" height="36.2969" rx="12.5" ry="12.5" style="stroke:#181818;stroke-width:1.5;" width="109" x="638" y="2412.6172"/><text fill="#000000" font-family="sans-serif" font-size="14" lengthAdjust="spacing" textLength="89" x="648" y="2435.6123">PriceDeleted</text><path d="M588,2374.4688 L598,2374.4688 C613,2374.4688 613,2430.7656 628,2430.7656 L638,2430.7656 " fill="none" style="stroke:#181818;stroke-width:1.0;"/><path d="M445,2205.5781 L455,2205.5781 C470,2205.5781 470,2374.4688 485,2374.4688 L495,2374.4688 " fill="none" style="stroke:#181818;stroke-width:1.0;"/><path d="M309,2205.5781 L319,2205.5781 C334,2205.5781 334,2205.5781 349,2205.5781 L359,2205.5781 " fill="none" style="stroke:#181818;stroke-width:1.0;"/><path d="M90,1234.457 L100,1234.457 C115,1234.457 115,2205.5781 130,2205.5781 L140,2205.5781 " fill="none" style="stroke:#181818;stroke-width:1.0;"/><!--MD5=[bb7048f30e972f009261dc1e7cdfa977]
@startmindmap
* Finetech
** Customer UX
*** Sales UX
*** Customer UX
** Sales
*** Catalog API
**** getCatalog
***** Catalog
**** getProduct
***** Product
***** QuoteCriteria
**** consumes
***** CatalogEvent
***** ProductEvent
*** Quote API
**** getQuoteByCriteria
***** Quote
***** Price
***** Condition
**** consumes
***** PriceEvent
*** Order API
**** createOrder
***** Quote
***** Person
***** Organization
**** produces
***** OrderEvent
****** OrderCreated
****** OrderRejected
****** UnsignedContractCreated
** Signing
*** Signing UX 
*** Signing API
**** startContractSigning
**** signContractWithSignature
**** consumes
***** UnsignedContractCreated
**** produces
***** SigningEvent
****** ContractSigningStarted 
****** ContractSigningExpired 
****** ContractSigned 
** Customer
***  Customer API
**** getCustomer
**** consumes
***** OrderCreated
*** Agreement API
**** getAgreement
**** consumes
***** ContractSigned 
*** Document API
**** getDocument
**** consumes
***** ContractSigned
*** Case API
**** getCase
**** consumes
***** OrderEvent
***** SigningEvent
**** produces
***** CaseEvent 
** Communication
*** Email API
**** getEmail
**** consumes
*****  CaseEvent 
** Product Management
*** produces
**** CatalogEvent
***** CatalogCreated
***** CatalogUpdated
***** CatalogDeleted
***** ProductCreated
***** ProductUpdated
***** ProductDeleted
**** PriceEvent
***** PriceCreated
***** PriceUpdated
***** PriceDeleted
@endmindmap

PlantUML version 1.2022.6(Tue Jun 21 17:34:49 UTC 2022)
(GPL source distribution)
Java Runtime: OpenJDK Runtime Environment
JVM: OpenJDK 64-Bit Server VM
Default Encoding: UTF-8
Language: en
Country: null
--></g></svg>