<?xml version="1.0" encoding="UTF-8" standalone="no"?><svg xmlns="http://www.w3.org/2000/svg" xmlns:xlink="http://www.w3.org/1999/xlink" contentStyleType="text/css" height="637px" preserveAspectRatio="none" style="width:938px;height:637px;background:#FFFFFF;" version="1.1" viewBox="0 0 938 637" width="938px" zoomAndPan="magnify"><defs/><g><!--MD5=[8f9baf877c4ccca5f77d9a09d1105ca2]
cluster UX--><g id="cluster_UX"><rect height="87" rx="2.5" ry="2.5" style="stroke:#181818;stroke-width:1.0;fill:none;" width="230" x="262" y="145"/><text fill="#000000" font-family="sans-serif" font-size="14" font-weight="bold" lengthAdjust="spacing" textLength="103" x="325.5" y="159.9951">Customer UX</text></g><!--MD5=[efb0108df68c95f86fb378679ab58bc2]
cluster Catalog--><g id="cluster_Catalog"><rect height="87" rx="2.5" ry="2.5" style="stroke:#181818;stroke-width:1.0;fill:none;" width="229" x="7" y="296"/><text fill="#000000" font-family="sans-serif" font-size="14" font-weight="bold" lengthAdjust="spacing" textLength="89" x="77" y="310.9951">Catalog API</text></g><!--MD5=[76213ff2e9fcd30db5fbaaef91fb9470]
cluster Quote--><g id="cluster_Quote"><rect height="87" rx="2.5" ry="2.5" style="stroke:#181818;stroke-width:1.0;fill:none;" width="102" x="260" y="296"/><text fill="#000000" font-family="sans-serif" font-size="14" font-weight="bold" lengthAdjust="spacing" textLength="78" x="272" y="310.9951">Quote API</text></g><!--MD5=[9afad148052a6df81378a68f771bb22f]
cluster Validator--><g id="cluster_Validator"><rect height="87" rx="2.5" ry="2.5" style="stroke:#181818;stroke-width:1.0;fill:none;" width="221" x="386" y="296"/><text fill="#000000" font-family="sans-serif" font-size="14" font-weight="bold" lengthAdjust="spacing" textLength="100" x="446.5" y="310.9951">Validator API</text></g><!--MD5=[c293bfa34ab96f1045c0340bd83f772e]
cluster PIM--><g id="cluster_PIM"><rect height="87" rx="2.5" ry="2.5" style="stroke:#181818;stroke-width:1.0;fill:none;" width="221" x="117" y="544"/><text fill="#000000" font-family="sans-serif" font-size="14" font-weight="bold" lengthAdjust="spacing" textLength="27" x="214" y="558.9951">PIM</text></g><!--MD5=[afbeec34cae0dc8cbde0842f3bdb4109]
cluster Comunication--><g id="cluster_Comunication"><rect height="87" rx="2.5" ry="2.5" style="stroke:#181818;stroke-width:1.0;fill:none;" width="243" x="422" y="7"/><text fill="#000000" font-family="sans-serif" font-size="14" font-weight="bold" lengthAdjust="spacing" textLength="107" x="490" y="21.9951">Comunication</text></g><!--MD5=[7de9111c66e60118c6e0720499e5b88e]
cluster Signature--><g id="cluster_Signature"><rect height="87" rx="2.5" ry="2.5" style="stroke:#181818;stroke-width:1.0;fill:none;" width="243" x="689" y="7"/><text fill="#000000" font-family="sans-serif" font-size="14" font-weight="bold" lengthAdjust="spacing" textLength="140" x="740.5" y="21.9951">Signature Partner</text></g><!--MD5=[a3f8ada5239588d2b8f8f8e26b24aea1]
entity SalesX--><g id="elem_SalesX"><rect fill="#F1F1F1" height="36.2969" rx="2.5" ry="2.5" style="stroke:#181818;stroke-width:0.5;" width="66" x="278" y="180"/><text fill="#000000" font-family="sans-serif" font-size="14" lengthAdjust="spacing" textLength="46" x="288" y="202.9951">SalesX</text></g><!--MD5=[0ab735abaf015fb5f7556b8245b06d7d]
entity CustomerX--><g id="elem_CustomerX"><rect fill="#F1F1F1" height="36.2969" rx="2.5" ry="2.5" style="stroke:#181818;stroke-width:0.5;" width="97" x="379.5" y="180"/><text fill="#000000" font-family="sans-serif" font-size="14" lengthAdjust="spacing" textLength="77" x="389.5" y="202.9951">CustomerX</text></g><!--MD5=[8770e429356369015f617b1b9a294f7b]
entity CatalogService--><g id="elem_CatalogService"><rect fill="#F1F1F1" height="36.2969" rx="2.5" ry="2.5" style="stroke:#181818;stroke-width:0.5;" width="70" x="150" y="331"/><text fill="#000000" font-family="sans-serif" font-size="14" lengthAdjust="spacing" textLength="50" x="160" y="353.9951">Service</text></g><!--MD5=[a02e4861834adc8c9e514fb46d4e10fa]
entity CatalogConsumer--><g id="elem_CatalogConsumer"><rect fill="#F1F1F1" height="36.2969" rx="2.5" ry="2.5" style="stroke:#181818;stroke-width:0.5;" width="92" x="23" y="331"/><text fill="#000000" font-family="sans-serif" font-size="14" lengthAdjust="spacing" textLength="72" x="33" y="353.9951">Consumer</text></g><!--MD5=[912d419da5394734b79c6594a9dddff6]
entity QuoteService--><g id="elem_QuoteService"><rect fill="#F1F1F1" height="36.2969" rx="2.5" ry="2.5" style="stroke:#181818;stroke-width:0.5;" width="70" x="276" y="331"/><text fill="#000000" font-family="sans-serif" font-size="14" lengthAdjust="spacing" textLength="50" x="286" y="353.9951">Service</text></g><!--MD5=[e57a7fab528e07fa9ce5a40179d3f71a]
entity ValidatorService--><g id="elem_ValidatorService"><rect fill="#F1F1F1" height="36.2969" rx="2.5" ry="2.5" style="stroke:#181818;stroke-width:0.5;" width="70" x="402" y="331"/><text fill="#000000" font-family="sans-serif" font-size="14" lengthAdjust="spacing" textLength="50" x="412" y="353.9951">Service</text></g><!--MD5=[dc3039ee8ea0031327228f8cc081b04e]
entity ValidatorProducer--><g id="elem_ValidatorProducer"><rect fill="#F1F1F1" height="36.2969" rx="2.5" ry="2.5" style="stroke:#181818;stroke-width:0.5;" width="83" x="507.5" y="331"/><text fill="#000000" font-family="sans-serif" font-size="14" lengthAdjust="spacing" textLength="63" x="517.5" y="353.9951">Producer</text></g><!--MD5=[d087ff330bd52b62fe53aeddc2b207b9]
entity PimProducer--><g id="elem_PimProducer"><rect fill="#F1F1F1" height="36.2969" rx="2.5" ry="2.5" style="stroke:#181818;stroke-width:0.5;" width="83" x="133.5" y="579"/><text fill="#000000" font-family="sans-serif" font-size="14" lengthAdjust="spacing" textLength="63" x="143.5" y="601.9951">Producer</text></g><!--MD5=[ac557410c82165264c95675af7a97c7b]
entity PimService--><g id="elem_PimService"><rect fill="#F1F1F1" height="36.2969" rx="2.5" ry="2.5" style="stroke:#181818;stroke-width:0.5;" width="70" x="252" y="579"/><text fill="#000000" font-family="sans-serif" font-size="14" lengthAdjust="spacing" textLength="50" x="262" y="601.9951">Service</text></g><!--MD5=[888ddfe6a99e9dff5ca9407e5d75c417]
entity ComunicationConsumer--><g id="elem_ComunicationConsumer"><rect fill="#F1F1F1" height="36.2969" rx="2.5" ry="2.5" style="stroke:#181818;stroke-width:0.5;" width="92" x="557" y="42"/><text fill="#000000" font-family="sans-serif" font-size="14" lengthAdjust="spacing" textLength="72" x="567" y="64.9951">Consumer</text></g><!--MD5=[d9171277cf3bec8f27acdeb7513a55bc]
entity ComunicationProducer--><g id="elem_ComunicationProducer"><rect fill="#F1F1F1" height="36.2969" rx="2.5" ry="2.5" style="stroke:#181818;stroke-width:0.5;" width="83" x="438.5" y="42"/><text fill="#000000" font-family="sans-serif" font-size="14" lengthAdjust="spacing" textLength="63" x="448.5" y="64.9951">Producer</text></g><!--MD5=[c1c802d1f2aa0c73928b3ff37b430a78]
entity DigitalSignatureConsumer--><g id="elem_DigitalSignatureConsumer"><rect fill="#F1F1F1" height="36.2969" rx="2.5" ry="2.5" style="stroke:#181818;stroke-width:0.5;" width="92" x="824" y="42"/><text fill="#000000" font-family="sans-serif" font-size="14" lengthAdjust="spacing" textLength="72" x="834" y="64.9951">Consumer</text></g><!--MD5=[36d7add95beef268dd5dff9a3d54b360]
entity DigitalSignatureProducer--><g id="elem_DigitalSignatureProducer"><rect fill="#F1F1F1" height="36.2969" rx="2.5" ry="2.5" style="stroke:#181818;stroke-width:0.5;" width="83" x="705.5" y="42"/><text fill="#000000" font-family="sans-serif" font-size="14" lengthAdjust="spacing" textLength="63" x="715.5" y="64.9951">Producer</text></g><!--MD5=[94e2d3e58a10b550690063ca0e22fce2]
entity CustomerActor--><g id="elem_CustomerActor"><ellipse cx="369" cy="30.5" fill="#F1F1F1" rx="8" ry="8" style="stroke:#181818;stroke-width:0.5;"/><path d="M369,38.5 L369,65.5 M356,46.5 L382,46.5 M369,65.5 L356,80.5 M369,65.5 L382,80.5 " fill="none" style="stroke:#181818;stroke-width:0.5;"/><text fill="#000000" font-family="sans-serif" font-size="14" lengthAdjust="spacing" textLength="68" x="335" y="94.9951">Customer</text></g><!--MD5=[58f2e549fd8bfeb1ab1e4673e9e232bd]
entity catalogTopic--><g id="elem_catalogTopic"><rect fill="#F1F1F1" height="36.2969" rx="2.5" ry="2.5" style="stroke:#181818;stroke-width:0.5;" width="110" x="83" y="461"/><text fill="#000000" font-family="sans-serif" font-size="14" lengthAdjust="spacing" textLength="90" x="93" y="483.9951">sales.catalog</text></g><!--MD5=[77b78310212deea4140ad9f5a994c4e0]
entity quoteTopic--><g id="elem_quoteTopic"><rect fill="#F1F1F1" height="36.2969" rx="2.5" ry="2.5" style="stroke:#181818;stroke-width:0.5;" width="101" x="625.5" y="461"/><text fill="#000000" font-family="sans-serif" font-size="14" lengthAdjust="spacing" textLength="81" x="635.5" y="483.9951">sales.quote</text></g><!--MD5=[b037d25e50ae9fee17d6202168eea0e6]
link CustomerActor to SalesX--><g id="link_CustomerActor_SalesX"><path d="M353.15,98.16 C342.66,122.77 329.25,154.22 320.4,174.95 " fill="none" id="CustomerActor-to-SalesX" style="stroke:#181818;stroke-width:1.0;"/><polygon fill="#181818" points="318.37,179.72,325.5742,173.0044,320.3275,175.1191,318.2128,169.8724,318.37,179.72" style="stroke:#181818;stroke-width:1.0;"/></g><!--MD5=[e195b82dad9539660e9826661b92b9d4]
link CustomerActor to CustomerX--><g id="link_CustomerActor_CustomerX"><path d="M385.12,98.16 C395.8,122.77 409.44,154.22 418.44,174.95 " fill="none" id="CustomerActor-to-CustomerX" style="stroke:#181818;stroke-width:1.0;"/><polygon fill="#181818" points="420.51,179.72,420.6043,169.8716,418.5232,175.1317,413.2631,173.0505,420.51,179.72" style="stroke:#181818;stroke-width:1.0;"/></g><!--MD5=[6260622627d362a5676032d7e5ed5181]
link SalesX to CatalogService--><g id="link_SalesX_CatalogService"><path d="M277.85,213.63 C262.06,221.9 243.87,233.51 231,248 C210.79,270.75 197.93,303.89 191.09,325.69 " fill="none" id="SalesX-to-CatalogService" style="stroke:#181818;stroke-width:1.0;"/><polygon fill="#181818" points="189.56,330.7,196.008,323.2553,191.0164,325.9168,188.3549,320.9251,189.56,330.7" style="stroke:#181818;stroke-width:1.0;"/><text fill="#000000" font-family="sans-serif" font-size="13" lengthAdjust="spacing" textLength="70" x="232" y="261.0669">getCatalog</text><text fill="#000000" font-family="sans-serif" font-size="13" lengthAdjust="spacing" textLength="70" x="232" y="276.1997">getProduct</text></g><!--MD5=[1077eefb7e5d6ff09f6c1813bff02901]
link SalesX to QuoteService--><g id="link_SalesX_QuoteService"><path d="M311,216.09 C311,243.01 311,295.28 311,325.31 " fill="none" id="SalesX-to-QuoteService" style="stroke:#181818;stroke-width:1.0;"/><polygon fill="#181818" points="311,330.65,315,321.65,311,325.65,307,321.65,311,330.65" style="stroke:#181818;stroke-width:1.0;"/><text fill="#000000" font-family="sans-serif" font-size="13" lengthAdjust="spacing" textLength="60" x="312" y="268.5669">getQuote</text></g><!--MD5=[b4ae3b1768433d4bf948bb0d593b0224]
link SalesX to ValidatorService--><g id="link_SalesX_ValidatorService"><path d="M329.92,216.32 C339.15,224.2 350.68,233.25 362,240 C369.87,244.69 374.17,241.89 381,248 C405,269.45 421.03,303.72 429.58,326.05 " fill="none" id="SalesX-to-ValidatorService" style="stroke:#181818;stroke-width:1.0;"/><polygon fill="#181818" points="431.39,330.89,432.0015,321.0601,429.6469,326.2037,424.5034,323.8491,431.39,330.89" style="stroke:#181818;stroke-width:1.0;"/><text fill="#000000" font-family="sans-serif" font-size="13" lengthAdjust="spacing" textLength="82" x="407" y="268.5669">acceptQuote</text></g><!--MD5=[aa8eeff9370c3be84de1e144070ee076]
reverse link CatalogConsumer to catalogTopic--><g id="link_CatalogConsumer_catalogTopic"><path d="M80.73,371.75 C94.24,396.83 116.19,437.53 128.62,460.6 " fill="none" id="CatalogConsumer-backto-catalogTopic" style="stroke:#181818;stroke-width:1.0;"/><polygon fill="#181818" points="78.31,367.26,79.0588,377.0804,80.6822,371.6614,86.1011,373.2848,78.31,367.26" style="stroke:#181818;stroke-width:1.0;"/><text fill="#000000" font-family="sans-serif" font-size="13" lengthAdjust="spacing" textLength="100" x="115" y="412.0669">CatalogCreated</text><text fill="#000000" font-family="sans-serif" font-size="13" lengthAdjust="spacing" textLength="104" x="113" y="427.1997">CatalogUpdated</text></g><!--MD5=[0581604f107599286e572e66905104dc]
link ValidatorProducer to quoteTopic--><g id="link_ValidatorProducer_quoteTopic"><path d="M542.79,367.2 C537.58,384.86 532.9,412.34 546,431 C555.1,443.96 589.35,456.05 620.41,464.72 " fill="none" id="ValidatorProducer-to-quoteTopic" style="stroke:#181818;stroke-width:1.0;"/><polygon fill="#181818" points="625.36,466.08,617.7436,459.8357,620.5392,464.7536,615.6213,467.5491,625.36,466.08" style="stroke:#181818;stroke-width:1.0;"/><text fill="#000000" font-family="sans-serif" font-size="13" lengthAdjust="spacing" textLength="85" x="547" y="419.5669">CatalogEvent</text></g><!--MD5=[0581604f107599286e572e66905104dc]
link ValidatorProducer to quoteTopic--><g id="link_ValidatorProducer_quoteTopic"><path d="M590.62,366.7 C606.61,374.66 624.1,385.45 637,399 C652.39,415.17 662.9,438.57 669.1,455.7 " fill="none" id="ValidatorProducer-to-quoteTopic-1" style="stroke:#181818;stroke-width:1.0;"/><polygon fill="#181818" points="670.89,460.81,671.6883,450.9936,669.2363,456.0914,664.1385,453.6394,670.89,460.81" style="stroke:#181818;stroke-width:1.0;"/><text fill="#000000" font-family="sans-serif" font-size="13" lengthAdjust="spacing" textLength="85" x="659" y="419.5669">ProductEvent</text></g><!--MD5=[ee09a85637691f3c1b6afc9ca102051e]
link QuoteService to PimService--><g id="link_QuoteService_PimService"><path d="M309.31,367.3 C305.06,410.88 293.91,525.15 289.18,573.68 " fill="none" id="QuoteService-to-PimService" style="stroke:#181818;stroke-width:1.0;"/><polygon fill="#181818" points="288.69,578.72,293.5462,570.1516,289.1762,573.7437,285.5841,569.3737,288.69,578.72" style="stroke:#181818;stroke-width:1.0;"/><text fill="#000000" font-family="sans-serif" font-size="13" lengthAdjust="spacing" textLength="52" x="301" y="483.5669">getPrice</text></g><!--MD5=[fc1c9813e32111467b220e930cd61a32]
link ValidatorService to PimService--><g id="link_ValidatorService_PimService"><path d="M429.39,367.29 C416.79,395.32 390.16,452.09 362,497 C344.43,525.02 320.99,555.01 305.02,574.54 " fill="none" id="ValidatorService-to-PimService" style="stroke:#181818;stroke-width:1.0;"/><polygon fill="#181818" points="301.53,578.79,310.3357,574.3786,304.7055,574.9279,304.1562,569.2977,301.53,578.79" style="stroke:#181818;stroke-width:1.0;"/><text fill="#000000" font-family="sans-serif" font-size="13" lengthAdjust="spacing" textLength="177" x="383" y="483.5669">validateQuoteAndCustomer</text></g><!--MD5=[fdd3618ad3be07f01304c1ab005e72c4]
reverse link catalogTopic to PimProducer--><g id="link_catalogTopic_PimProducer"><path d="M145.01,501.97 C152.13,524.29 163,558.39 169.52,578.81 " fill="none" id="catalogTopic-backto-PimProducer" style="stroke:#181818;stroke-width:1.0;"/><polygon fill="#181818" points="143.46,497.12,142.3699,506.9083,144.9725,501.8858,149.9951,504.4884,143.46,497.12" style="stroke:#181818;stroke-width:1.0;"/></g><!--MD5=[5f0c6b4db76440e59628deb09e5fd66b]
@startuml

  actor Customer as CustomerActor

  rectangle "Customer UX" as UX {
      rectangle SalesX 
      rectangle CustomerX 
  }

  CustomerActor - -> SalesX
  CustomerActor - -> CustomerX

  rectangle "Catalog API" as Catalog {
      rectangle Service as CatalogService
      rectangle Consumer as CatalogConsumer
  }

  rectangle "Quote API" as Quote {
      rectangle Service as QuoteService
  }

  rectangle "Validator API" as Validator {
      rectangle Service as ValidatorService
      rectangle Producer as ValidatorProducer
  }

  rectangle "sales.catalog" as catalogTopic 
  rectangle "sales.quote" as quoteTopic 



  SalesX - -> CatalogService   : getCatalog\ngetProduct
  SalesX - -> QuoteService     : getQuote
  SalesX - -> ValidatorService : acceptQuote


  CatalogConsumer <- - catalogTopic : CatalogCreated\nCatalogUpdated

  
  ValidatorProducer - -> quoteTopic : CatalogEvent
  ValidatorProducer - -> quoteTopic : ProductEvent
    
  rectangle PIM {
      rectangle Producer as PimProducer
      rectangle Service as PimService
  }

  QuoteService - -> PimService : getPrice  
  ValidatorService - -> PimService : validateQuoteAndCustomer  
  catalogTopic <- - PimProducer   

  rectangle Comunication {
      rectangle Consumer as ComunicationConsumer
      rectangle Producer as ComunicationProducer
  }

  rectangle "Signature Partner" as Signature {
      rectangle Consumer as DigitalSignatureConsumer
      rectangle Producer as DigitalSignatureProducer
  }

@enduml

PlantUML version 1.2022.6(Tue Jun 21 17:34:49 UTC 2022)
(GPL source distribution)
Java Runtime: OpenJDK Runtime Environment
JVM: OpenJDK 64-Bit Server VM
Default Encoding: UTF-8
Language: en
Country: null
--></g></svg>